PathFileType	4	(X/Y/Z)	C:\Users\Basilio\Documents\Thesis Gigler\squatting_fais\c3dfiles\047\SJ_pre3\markers_experimental.trc
DataRate	CameraRate	NumFrames	NumMarkers	Units	OrigDataRate	OrigDataStartFrame	OrigNumFrames
200.000000	200.000000	4	60	mm	200.000000	214	1714
Frame#	Time	FHD			LBHD			RBHD			C7			T10			CLAV			LSHO			LUUPA			LMUPA			LDUPA			LLEP			LMEP			LRAD			LUL			LRFIN			RSHO			RUPA1			RMUPA			RDUPA			RLEP			RMEP			RRAD			RUL			RUFIN			LASI			RASI			USACR			LSACR			RSACR			LTHI1			LTHI2			LTHI3			LTHI4			LLFC			LMFC			LTIB1			LTIB2			LTIB3			LTIB4			LLMAL			LMMAL			LMT1			LMT2			LMT5			RTHI			RTHI2			RTHI3			RTHI4			RLFC			RMFC			RTIB1			RTIB2			RTIB3			RTIB4			RLMAL			RMMAL			RHEE			RMT1			RMT2			RMT5			
		X1	Y1	Z1	X2	Y2	Z2	X3	Y3	Z3	X4	Y4	Z4	X5	Y5	Z5	X6	Y6	Z6	X7	Y7	Z7	X8	Y8	Z8	X9	Y9	Z9	X10	Y10	Z10	X11	Y11	Z11	X12	Y12	Z12	X13	Y13	Z13	X14	Y14	Z14	X15	Y15	Z15	X16	Y16	Z16	X17	Y17	Z17	X18	Y18	Z18	X19	Y19	Z19	X20	Y20	Z20	X21	Y21	Z21	X22	Y22	Z22	X23	Y23	Z23	X24	Y24	Z24	X25	Y25	Z25	X26	Y26	Z26	X27	Y27	Z27	X28	Y28	Z28	X29	Y29	Z29	X30	Y30	Z30	X31	Y31	Z31	X32	Y32	Z32	X33	Y33	Z33	X34	Y34	Z34	X35	Y35	Z35	X36	Y36	Z36	X37	Y37	Z37	X38	Y38	Z38	X39	Y39	Z39	X40	Y40	Z40	X41	Y41	Z41	X42	Y42	Z42	X43	Y43	Z43	X44	Y44	Z44	X45	Y45	Z45	X46	Y46	Z46	X47	Y47	Z47	X48	Y48	Z48	X49	Y49	Z49	X50	Y50	Z50	X51	Y51	Z51	X52	Y52	Z52	X53	Y53	Z53	X54	Y54	Z54	X55	Y55	Z55	X56	Y56	Z56	X57	Y57	Z57	X58	Y58	Z58	X59	Y59	Z59	X60	Y60	Z60	

215	1.07	40.76818084716798	1469.35009765625	-877.2180786132815	-60.63771820068361	1595.1396484375	-963.573669433594	-75.08493041992189	1618.968383789063	-819.1768798828127	-265.4306945800782	1509.35205078125	-885.9443359375002	-391.8197021484376	1193.123901367188	-876.6550903320315	-160.3368072509766	1382.318237304688	-892.3288574218752	-226.7754821777344	1440.192138671875	-1063.012451171875	-377.0451660156251	1355.383911132813	-1167.90185546875	-349.7438964843751	1321.901611328125	-1193.167846679688	-405.8160400390626	1304.8798828125	-1206.382690429688	-415.0609436035157	1241.806030273438	-1241.834838867188	-461.9102172851564	1219.725830078125	-1157.714599609375	-303.0411682128907	1073.183227539063	-1089.02978515625	-277.5890197753907	1039.339599609375	-1154.624877929688	-241.2969055175782	1056.875244140625	-1058.270874023438	-211.0484313964844	1451.763305664063	-723.2053833007814	-361.1736450195313	1366.843383789063	-599.0838012695314	-335.4521484375001	1330.048583984375	-578.2530517578126	-390.883026123047	1315.951293945313	-560.7636718750001	-399.7594299316407	1248.863403320313	-529.7077636718751	-454.3319396972657	1228.180908203125	-601.8452148437501	-275.6858215332032	1089.1708984375	-679.9657592773439	-269.6410522460938	1046.294555664063	-617.1596069335939	-224.2322387695313	1049.544311523438	-712.2658691406251	-238.6488952636719	946.4111328125002	-1002.1826171875	-233.9904479980469	945.7261352539065	-766.7451171875001	-409.7063293457032	1047.374267578125	-883.7634277343752	-418.3670959472657	1017.345642089844	-912.5661621093752	-414.0000000000001	1016.919250488281	-854.2911376953127	-342.0431213378907	813.4292602539065	-1085.873657226563	-310.4680786132813	736.4293823242189	-1100.142578125	-261.8441467285157	736.0003051757814	-1089.302001953125	-340.7151184082032	683.1533203125001	-1101.269165039063	-364.3384094238282	509.7665405273439	-1088.801025390625	-315.9837341308594	478.9859008789064	-979.0959472656252	-315.8362121582032	314.3568725585938	-1041.3984375	-338.8764953613282	282.0135498046876	-1120.546875	-313.4478454589844	273.2779235839844	-1082.655639648438	-318.8624877929688	191.4296875	-1066.42041015625	-374.2349548339844	96.85276031494143	-1122.522338867188	-337.8905944824219	100.4092178344727	-1039.565673828125	-212.8105926513672	62.83006286621095	-1093.675415039063	-222.562728881836	61.73923873901369	-1136.390991210938	-271.0772705078126	43.28108215332032	-1175.055053710938	-348.5762939453126	784.5635375976565	-676.5423583984376	-313.4362792968751	728.4609375000001	-666.1842041015626	-280.5673217773438	728.9747314453126	-669.3635253906251	-342.2861328125001	649.4238891601564	-674.9634399414064	-338.2356872558594	499.3162231445314	-687.1193847656251	-295.1296997070313	487.7949218750001	-800.445739746094	-301.8326110839844	370.4675292968751	-693.6693115234376	-369.6504821777344	289.6039123535157	-664.3336791992189	-323.6453247070313	289.4232788085938	-671.7083740234376	-309.3059082031251	240.2994842529297	-703.1200561523439	-377.0993041992188	90.46986389160158	-682.5348510742189	-333.0159606933594	105.8067779541016	-765.2754516601564	-420.9614868164064	51.89705276489259	-743.6967773437501	-209.2596282958985	56.12215042114259	-716.7501831054689	-217.5895080566407	58.85885238647462	-671.4069213867189	-273.6553344726563	30.19799995422364	-625.0862426757814	
216	1.075	40.30938720703126	1469.796142578125	-876.9863891601565	-61.13442611694337	1595.349609375	-963.6980590820315	-75.44959259033205	1619.140258789063	-819.345886230469	-265.7683105468751	1509.386596679688	-886.0883789062502	-391.8910522460939	1193.0537109375	-876.7151489257815	-160.6191864013672	1382.350341796875	-892.3540039062502	-227.0138244628907	1440.308715820313	-1063.069946289063	-377.0958251953126	1355.225341796875	-1167.929443359375	-349.5745849609376	1321.836791992188	-1193.3076171875	-405.7894897460939	1304.711181640625	-1206.57080078125	-414.8421936035157	1241.62939453125	-1242.007080078125	-461.7541503906251	1219.418579101563	-1157.958740234375	-302.9450683593751	1073.145385742188	-1088.977172851563	-277.5823669433594	1039.06103515625	-1154.472778320313	-241.2188873291016	1056.8486328125	-1058.227783203125	-211.2791290283204	1451.916748046875	-723.5220336914064	-361.4754028320313	1366.968505859375	-599.1935424804689	-336.1434020996094	1330.048217773438	-578.2022705078126	-391.236785888672	1315.968872070313	-560.9883422851564	-400.1511535644532	1248.817626953125	-529.7962646484376	-454.6269531250001	1228.151123046875	-601.9633178710939	-275.7557373046876	1089.309204101563	-680.1231689453126	-269.6984863281251	1046.448974609375	-617.1517944335939	-224.2847900390626	1049.592163085938	-712.1923217773439	-238.5790405273438	946.4849853515627	-1002.118896484375	-233.9994812011719	945.980895996094	-766.5128173828126	-409.685760498047	1047.403564453125	-883.7576293945315	-418.2700500488282	1017.321472167969	-912.5518188476565	-413.9974670410157	1016.896301269531	-854.3009033203127	-341.8994445800782	813.501403808594	-1085.870483398438	-310.2512512207032	736.5423583984376	-1100.204467773438	-261.5179138183594	736.0692138671876	-1089.458374023438	-340.3949890136719	683.2016601562501	-1101.272827148438	-364.0464477539063	509.7812805175782	-1088.87646484375	-315.5075378417969	479.4788818359376	-979.6765136718752	-315.6719055175782	314.4018859863282	-1041.368041992188	-338.8037109375001	282.4597778320313	-1120.773681640625	-313.3147277832032	273.2684631347657	-1082.695068359375	-318.7509460449219	191.5300750732422	-1066.453369140625	-374.2439575195313	96.83140563964847	-1122.527099609375	-337.9043579101563	100.4566421508789	-1039.577026367188	-212.8029327392579	62.80753707885744	-1093.668823242188	-222.5417175292969	61.72664260864259	-1136.383056640625	-271.0543212890626	43.30536651611329	-1175.05322265625	-348.5630187988282	784.5887451171877	-676.6688842773439	-313.4760131835938	728.4445800781251	-666.1776123046876	-280.5824279785157	728.9645996093751	-669.3266601562501	-342.3462829589844	649.4281616210939	-674.9924316406251	-338.3528747558594	499.2895507812501	-687.1629028320314	-295.2470092773438	487.6575622558595	-800.4819946289065	-302.0395202636719	370.6361083984376	-693.6044921875001	-369.7341308593751	289.6083984375001	-664.3771362304689	-323.6821289062501	289.4610595703126	-671.6646118164064	-309.3162231445313	240.4969482421876	-703.1635131835939	-377.1863708496094	90.51941680908205	-682.6226196289064	-333.0971374511719	105.7544250488282	-765.2539672851564	-420.9590759277345	51.8894500732422	-743.7449340820314	-209.2745056152344	56.10160064697267	-716.7259521484376	-217.4976196289063	59.24442672729494	-671.9456787109376	-273.6642150878907	30.21031570434571	-625.1009521484376	
217	1.08	39.63592910766602	1470.006469726563	-876.5903930664065	-61.66523361206056	1595.662841796875	-963.7740478515627	-76.22100830078126	1619.619262695313	-819.0811767578127	-266.4609985351563	1509.531494140625	-886.1086425781252	-392.0082092285157	1193.07763671875	-876.773620605469	-160.9244537353516	1382.531616210938	-892.3715820312502	-227.1236419677735	1440.409057617188	-1063.1220703125	-377.1763916015626	1355.20654296875	-1168.002075195313	-349.5749206542969	1321.826293945313	-1193.442993164063	-405.812469482422	1304.515625	-1206.644409179688	-414.6934814453126	1241.411865234375	-1242.163452148438	-461.5803833007814	1219.16943359375	-1158.137451171875	-302.8081665039063	1073.098510742188	-1088.91650390625	-277.4144287109376	1038.894897460938	-1154.278076171875	-241.0048522949219	1056.85693359375	-1058.154052734375	-211.522933959961	1451.985229492188	-723.7682495117189	-361.7698669433594	1367.034301757813	-599.6267089843751	-336.4165039062501	1330.0390625	-578.3600463867189	-391.780487060547	1315.98095703125	-561.1517944335939	-400.5316162109376	1248.803955078125	-529.9794311523439	-454.9087524414064	1228.037841796875	-602.1854248046876	-275.9465026855469	1089.374145507813	-680.2597045898439	-269.6620483398438	1046.705078125	-617.3277587890626	-224.3124237060547	1049.7509765625	-712.4226074218751	-238.4337005615235	946.608337402344	-1002.14892578125	-233.8885192871094	946.0533447265627	-766.6094360351564	-409.6966247558595	1047.364379882813	-883.804382324219	-418.312469482422	1017.327880859375	-912.603942871094	-414.1172790527345	1016.919738769531	-854.3364868164065	-341.7036743164063	813.6068115234377	-1085.879150390625	-310.0062866210938	736.5990600585939	-1100.25	-261.1209106445313	736.0797729492189	-1089.56591796875	-340.1854553222657	683.2119140625001	-1101.2822265625	-363.7490234375001	509.8019409179689	-1088.971435546875	-314.8236999511719	479.8214416503907	-979.8614501953127	-315.7110595703126	314.2856140136719	-1041.3984375	-338.1861877441407	282.2304992675782	-1120.97705078125	-313.2376708984376	273.1383666992188	-1082.689819335938	-318.7373046875001	191.4930419921875	-1066.5	-374.1792297363282	96.8555603027344	-1122.540283203125	-337.8110656738282	100.5081634521485	-1039.639038085938	-212.7827148437501	62.84121704101564	-1093.649536132813	-222.6811828613282	61.69153594970705	-1136.3681640625	-271.0553588867188	43.30314636230469	-1175.1044921875	-348.5948486328126	784.6187744140627	-676.7752075195314	-313.5576477050782	728.4979858398439	-666.1237792968751	-280.6370544433594	728.9831542968751	-669.3528442382814	-342.3870849609376	649.4784545898439	-675.1086425781251	-338.4311218261719	499.3157653808595	-687.2615966796876	-295.4061889648438	487.6340332031251	-800.5801391601565	-302.1602478027344	370.6603698730469	-693.6141967773439	-369.8143920898438	289.6085205078126	-664.4298706054689	-323.8171997070313	289.4645690917969	-671.6427001953126	-309.4275512695313	240.515365600586	-703.0878295898439	-377.2152099609376	90.55290985107423	-682.6779785156251	-333.2380371093751	105.7057037353516	-765.2910766601564	-420.9379272460939	51.91154861450197	-743.7137451171876	-209.2425384521485	56.06605911254884	-716.7156982421876	-217.3422546386719	59.4007034301758	-671.8746337890626	-273.6599731445313	30.21783828735352	-625.1009521484376	
218	1.085	39.12596511840821	1470.461669921875	-876.5800781250002	-62.0262794494629	1596.009765625	-963.7857055664065	-76.59008026123048	1619.979370117188	-819.193298339844	-266.9292907714844	1509.668334960938	-886.2707519531252	-392.4615173339845	1193.424072265625	-877.0862426757815	-161.2379913330078	1382.754638671875	-892.6192626953127	-227.4232635498047	1440.505493164063	-1063.194091796875	-377.3575134277344	1355.115356445313	-1168.043579101563	-349.6453857421876	1321.7470703125	-1193.488159179688	-405.7578735351564	1304.465087890625	-1206.817749023438	-414.5399780273439	1241.2744140625	-1242.329833984375	-461.4155883789064	1218.951782226563	-1158.291381835938	-302.6537475585938	1073.051513671875	-1088.889282226563	-277.2669982910157	1038.772338867188	-1154.306518554688	-240.9064636230469	1056.893798828125	-1058.070190429688	-212.0828704833985	1452.221435546875	-723.7904663085939	-362.0732116699219	1367.061157226563	-599.8342895507814	-336.6336364746094	1330.052490234375	-578.5206909179689	-392.3162536621095	1315.962158203125	-561.3890991210939	-400.8405761718751	1248.75537109375	-530.3568115234376	-455.212371826172	1227.865600585938	-602.3439331054689	-275.9944458007813	1089.512329101563	-680.4226684570314	-269.7296447753907	1046.807006835938	-617.4118652343751	-224.3986968994141	1049.837646484375	-712.5642700195314	-238.3673248291016	946.6640625000002	-1002.21142578125	-233.8889923095704	946.1031494140627	-766.6203613281251	-409.7107849121095	1047.307006835938	-883.8515625000002	-418.3135070800782	1017.320068359375	-912.6091308593752	-414.044158935547	1016.903564453125	-854.3758544921877	-341.4309082031251	813.680114746094	-1085.8779296875	-309.8167724609376	736.6619262695314	-1100.29248046875	-261.0474853515626	736.1076660156251	-1089.589233398438	-339.8836059570313	683.2767333984376	-1101.338134765625	-363.5357971191407	509.8818664550782	-1089.01953125	-314.6713562011719	479.7756652832032	-979.906921386719	-315.3422241210938	314.4156494140626	-1041.5244140625	-338.1800537109376	282.1670837402344	-1121.0927734375	-313.1612854003907	273.1021728515626	-1082.798095703125	-318.7287597656251	191.495590209961	-1066.494140625	-374.1936035156251	96.88495635986331	-1122.525390625	-337.7684936523438	100.5394287109375	-1039.677490234375	-212.7798614501954	62.83264160156251	-1093.698852539063	-222.6635284423829	61.70336532592775	-1136.3759765625	-271.0208740234376	43.32710647583009	-1175.088012695313	-348.6524047851563	784.6418457031252	-676.8471679687501	-313.6647338867188	728.5178833007814	-666.2056884765626	-280.7076721191407	728.9696044921876	-669.2771606445314	-342.4719238281251	649.4637451171876	-675.2329101562501	-338.5165100097657	499.2850036621095	-687.3284301757814	-295.4971008300782	487.5757141113282	-800.6397094726565	-302.2629394531251	370.6333923339844	-693.6318969726564	-369.9314880371094	289.6829833984376	-664.3950805664064	-323.9347534179688	289.5267028808594	-671.6614379882814	-309.4280700683594	240.576889038086	-703.1287231445314	-377.2514343261719	90.55935668945314	-682.7677001953126	-333.1541748046876	105.7029266357422	-765.3294677734376	-420.9254760742189	51.87428665161134	-743.7606201171876	-209.2263946533204	56.03590393066408	-716.7423706054689	-217.6359863281251	59.123104095459	-671.4802246093751	-273.6510314941407	30.18684768676759	-625.0913085937501	
